<?xml version="1.0" standalone="no"?>
<!DOCTYPE svg PUBLIC "-//W3C//DTD SVG 20010904//EN"
 "http://www.w3.org/TR/2001/REC-SVG-20010904/DTD/svg10.dtd">
<svg version="1.0" xmlns="http://www.w3.org/2000/svg"
 width="450.000000pt" height="450.000000pt" viewBox="0 0 450.000000 450.000000"
 preserveAspectRatio="xMidYMid meet">
<metadata>
Created by potrace 1.16, written by Peter Selinger 2001-2019
</metadata>
<g transform="translate(0.000000,450.000000) scale(0.100000,-0.100000)"
fill="#000000" stroke="none">
<path d="M2150 4228 c-65 -76 -144 -146 -189 -169 -14 -7 -36 -21 -49 -31
l-23 -17 21 -11 c35 -19 119 28 205 112 l75 74 0 -69 c0 -37 -4 -77 -10 -87
-25 -46 -242 -180 -293 -180 -10 0 -32 -7 -49 -16 -31 -16 -31 -17 -12 -31 13
-10 32 -13 59 -9 52 8 186 74 253 125 l52 41 0 -71 c0 -84 -14 -108 -105 -176
-64 -49 -188 -113 -218 -113 -10 0 -32 -7 -49 -16 -31 -16 -31 -17 -12 -31 48
-36 240 46 352 150 l32 31 0 -73 c0 -72 -1 -75 -37 -112 -21 -22 -43 -39 -49
-39 -6 0 -17 -7 -24 -15 -30 -36 -225 -125 -274 -125 -14 0 -41 -8 -61 -17
-35 -17 -35 -17 -13 -30 30 -16 52 -16 123 2 64 17 265 112 277 131 4 6 19 19
33 28 l25 16 0 -200 0 -200 -605 0 -605 0 0 156 0 156 23 -15 c12 -8 21 -21
19 -27 -1 -7 3 -10 10 -8 7 3 30 -6 50 -19 21 -12 42 -23 48 -23 5 0 10 -5 10
-12 0 -6 3 -9 6 -6 3 4 28 -4 56 -17 28 -13 56 -21 63 -19 7 3 16 1 20 -5 8
-14 55 -14 55 -1 0 6 10 10 23 10 19 1 17 4 -13 19 -30 16 -87 31 -113 31 -18
0 -167 81 -175 96 -5 9 -11 14 -13 12 -3 -1 -20 9 -37 24 -30 25 -32 31 -32
90 l1 63 24 -27 c13 -16 29 -28 35 -28 5 0 10 -4 10 -9 0 -5 8 -11 18 -15 9
-3 42 -19 72 -36 30 -17 63 -32 72 -33 10 -2 21 -6 24 -10 11 -11 44 -8 44 4
0 5 4 8 9 4 5 -3 12 -1 16 4 7 12 -45 40 -80 43 -14 1 -25 6 -25 10 0 4 -4 7
-8 5 -12 -3 -82 36 -82 46 0 4 -4 6 -9 3 -5 -4 -21 8 -35 25 -14 17 -26 27
-26 23 0 -4 -13 5 -30 21 -27 26 -30 34 -30 94 1 66 1 66 19 44 11 -13 24 -23
30 -23 6 0 11 -4 11 -10 0 -5 5 -10 11 -10 6 0 21 -8 34 -18 12 -10 54 -31 94
-46 62 -26 74 -28 98 -17 l27 13 -24 19 c-14 10 -33 17 -44 15 -27 -7 -151 62
-207 115 -46 43 -49 48 -49 97 0 29 4 52 9 52 5 0 27 -20 50 -45 23 -25 44
-45 47 -45 3 0 18 -9 33 -19 15 -11 34 -21 42 -23 8 -2 17 -7 21 -12 4 -6 13
-4 22 3 21 18 8 33 -49 61 -24 12 -46 29 -49 38 -3 10 -16 22 -28 27 -13 6
-22 16 -20 23 1 7 -9 18 -23 24 -14 6 -25 17 -25 25 0 7 -4 13 -10 13 -5 0
-10 6 -10 13 0 7 -10 18 -22 26 -21 13 -24 12 -43 -15 -36 -51 -165 -174 -190
-180 -13 -3 -26 -12 -29 -21 -3 -8 -10 -11 -16 -8 -15 9 -12 -4 5 -22 12 -12
19 -13 30 -3 8 7 15 9 15 6 0 -4 13 1 30 11 16 9 30 21 30 25 0 4 5 8 12 8 6
0 31 21 54 47 24 26 45 45 48 42 3 -2 6 -28 7 -56 3 -53 -11 -83 -37 -83 -8 0
-14 -4 -14 -9 0 -9 -82 -66 -89 -62 -2 2 -7 -1 -10 -6 -10 -13 -82 -44 -90
-38 -5 2 -23 -3 -41 -12 -32 -15 -32 -17 -14 -30 12 -9 29 -12 49 -7 17 3 38
7 48 7 9 1 17 5 17 10 0 4 3 6 7 4 5 -3 46 20 93 52 l85 56 -4 -60 c-3 -56
-30 -118 -49 -113 -4 2 -20 -9 -35 -24 -36 -33 -111 -73 -157 -83 -19 -4 -46
-14 -58 -22 -23 -14 -23 -15 -5 -28 22 -17 53 -19 53 -4 0 6 6 9 13 6 6 -2 28
4 47 13 19 10 39 18 44 18 5 0 12 4 15 9 3 5 25 20 49 33 23 13 49 34 57 47
24 36 30 28 26 -39 -2 -53 -7 -67 -32 -92 -16 -16 -31 -27 -34 -24 -3 3 -20
-8 -36 -23 -17 -16 -35 -26 -40 -23 -5 3 -9 1 -9 -4 0 -13 -85 -48 -151 -61
-31 -7 -65 -18 -75 -26 -18 -14 -18 -14 4 -15 12 0 22 -4 22 -10 0 -5 11 -10
25 -10 14 0 25 5 25 11 0 6 6 9 14 6 8 -3 41 7 75 23 34 16 61 27 61 24 0 -2
17 7 37 21 21 14 44 25 51 25 8 0 23 11 34 25 11 14 22 25 26 25 4 0 6 -70 4
-155 l-3 -155 -279 0 -280 0 0 -45 0 -45 1895 0 1895 0 0 45 0 45 -299 0 -300
0 -3 134 c-3 125 -2 132 15 122 9 -6 17 -17 17 -24 0 -8 6 -12 13 -9 7 3 24
-4 38 -14 13 -10 30 -19 37 -19 6 0 12 -5 12 -12 0 -6 3 -8 6 -5 4 3 16 1 28
-5 11 -7 23 -13 26 -13 3 -1 25 -7 49 -14 33 -9 51 -10 68 -2 34 16 23 26 -44
40 -69 15 -182 67 -190 87 -3 8 -13 14 -22 14 -25 0 -45 39 -51 98 l-5 54 20
-24 c11 -13 25 -25 30 -26 6 -2 33 -17 60 -35 28 -17 52 -31 55 -32 3 0 20 -6
38 -14 28 -12 37 -12 58 0 l25 13 -23 12 c-13 7 -38 14 -56 17 -19 3 -42 13
-53 23 -10 9 -19 14 -19 10 0 -11 -61 34 -97 72 -26 27 -32 42 -35 88 -3 51
-2 54 12 37 24 -28 104 -72 186 -103 32 -13 64 -4 64 16 0 8 -4 13 -9 9 -5 -3
-12 -1 -16 5 -3 5 -17 10 -30 10 -26 0 -105 39 -105 52 0 5 -4 6 -10 3 -5 -3
-10 -1 -10 4 0 6 -5 11 -11 11 -6 0 -25 15 -43 34 -27 29 -31 40 -28 75 4 36
6 39 23 31 10 -6 25 -20 33 -31 19 -27 77 -66 102 -69 40 -5 45 -1 32 19 -7
11 -14 19 -17 19 -4 0 -12 0 -19 1 -15 1 -152 136 -152 150 0 5 -7 12 -16 15
-11 4 -30 -8 -59 -40 -24 -25 -43 -48 -44 -51 0 -8 -99 -83 -109 -83 -5 0 -15
-6 -21 -14 -9 -11 -8 -15 5 -20 23 -9 77 20 133 70 27 24 52 44 55 44 3 0 6
-20 6 -43 0 -35 -5 -49 -27 -68 -16 -14 -32 -25 -37 -26 -5 -1 -12 -6 -15 -11
-11 -17 -120 -74 -130 -67 -13 7 -51 -16 -51 -32 0 -32 143 13 201 63 8 8 19
14 24 14 4 0 14 8 21 18 12 15 13 10 14 -39 0 -52 -3 -58 -37 -90 -53 -47
-110 -85 -143 -94 -16 -4 -86 -28 -93 -32 -19 -11 18 -34 46 -29 42 8 173 83
203 114 l24 27 0 -55 c0 -45 -5 -59 -24 -77 -13 -13 -29 -23 -35 -23 -6 0 -11
-5 -11 -10 0 -15 -133 -77 -193 -90 -74 -15 -85 -24 -47 -40 35 -15 78 -2 193
56 37 19 67 32 67 29 0 -4 11 7 25 22 l24 28 1 -137 0 -138 -625 0 -625 0 0
200 0 200 25 -16 c14 -9 29 -22 33 -28 12 -19 213 -114 277 -131 71 -18 93
-18 123 -2 22 13 22 13 -13 30 -20 9 -47 17 -61 17 -49 0 -244 89 -274 125 -7
8 -18 15 -24 15 -6 0 -28 17 -48 39 -37 37 -38 40 -38 112 l0 73 33 -31 c111
-104 303 -186 351 -150 19 14 19 15 -12 31 -17 9 -39 16 -49 16 -30 0 -154 64
-218 113 -91 69 -105 92 -105 178 l0 73 28 -26 c71 -65 215 -142 287 -153 27
-4 46 -2 59 8 19 14 19 15 -12 31 -17 9 -39 16 -49 16 -30 0 -154 64 -219 114
-83 62 -94 81 -94 163 l0 69 75 -74 c86 -84 170 -131 205 -112 l21 11 -23 17
c-13 10 -35 24 -49 31 -42 21 -122 91 -168 146 -63 74 -82 95 -91 95 -5 0 -36
-33 -70 -72z"/>
<path d="M1310 2518 c-48 -13 -64 -31 -56 -62 5 -21 12 -26 36 -26 l30 0 0
-161 c0 -89 7 -288 16 -444 8 -156 14 -303 12 -327 l-3 -43 -45 -5 c-37 -4
-46 -9 -48 -27 -6 -39 31 -53 143 -53 120 0 145 11 130 57 -9 23 -17 29 -47
31 l-36 3 -6 137 c-4 75 -13 256 -21 402 -8 146 -15 304 -15 351 0 93 3 99 56
99 28 0 44 41 24 65 -14 17 -113 19 -170 3z"/>
<path d="M3012 2520 c-39 -16 -47 -50 -34 -149 8 -56 12 -249 12 -533 0 -332
3 -447 12 -456 8 -8 46 -12 104 -12 77 0 95 3 118 21 30 24 32 32 10 53 -11
12 -35 16 -85 16 l-69 0 0 230 0 229 38 6 c62 11 63 12 60 52 l-3 38 -50 0
-50 0 0 210 0 210 35 3 c70 5 80 10 80 42 0 19 -7 33 -19 40 -24 12 -127 12
-159 0z"/>
<path d="M2123 2478 c-12 -6 -30 -27 -39 -46 -15 -31 -16 -58 -10 -211 l7
-176 -37 -75 c-85 -175 -114 -334 -79 -440 19 -57 71 -122 116 -146 41 -21
145 -18 198 7 l45 20 47 -21 c31 -13 69 -20 108 -20 52 0 62 3 72 22 16 29
-11 48 -68 48 -57 0 -107 25 -97 48 21 49 43 155 43 214 1 90 5 98 52 98 49 0
85 31 69 60 -14 25 -37 31 -85 20 -22 -5 -61 -10 -87 -10 -43 0 -48 -2 -48
-23 0 -12 7 -33 16 -45 12 -18 14 -36 9 -85 -7 -63 -29 -165 -39 -174 -16 -16
-115 253 -137 372 l-12 61 66 96 c73 108 86 141 94 244 5 71 5 71 -32 112 -49
55 -119 75 -172 50z m104 -107 c13 -19 23 -49 23 -68 0 -32 -37 -116 -79 -178
l-21 -30 0 146 c0 148 6 173 39 167 9 -2 26 -18 38 -37z m-109 -537 c17 -81
69 -215 112 -288 22 -38 40 -72 40 -76 0 -15 -72 -32 -112 -27 -126 17 -165
203 -87 413 24 63 30 60 47 -22z"/>
<path d="M2200 930 c0 -60 -22 -244 -30 -253 -7 -8 -37 132 -42 198 -2 22 -8
30 -23 30 -18 0 -21 -10 -31 -100 -12 -110 -19 -109 -29 5 -9 100 -24 145 -50
145 -14 0 -19 -6 -18 -20 2 -11 14 -96 27 -190 13 -93 27 -196 31 -228 6 -52
9 -58 28 -55 25 3 24 -1 32 131 4 54 9 97 11 95 2 -2 12 -51 23 -108 22 -109
30 -126 55 -117 12 5 16 20 16 59 0 29 9 107 19 173 11 66 23 155 26 198 l7
77 -26 0 c-24 0 -26 -4 -26 -40z"/>
<path d="M1507 953 c-14 -13 -6 -33 12 -33 10 0 21 -6 24 -14 3 -8 9 -94 13
-193 7 -184 3 -208 -38 -265 -9 -13 -10 -20 -1 -29 17 -17 52 -1 70 34 14 28
15 59 9 254 -6 197 -5 223 9 223 8 0 15 7 15 15 0 11 -13 15 -53 15 -30 0 -57
-3 -60 -7z"/>
<path d="M1758 948 c-2 -7 -2 -118 0 -246 l4 -233 56 3 c43 2 57 7 57 18 0 10
-12 16 -37 18 l-38 3 0 94 c0 93 1 95 25 101 16 4 25 13 25 25 0 14 -7 19 -25
19 -25 0 -25 1 -25 85 0 84 0 85 25 85 18 0 25 5 25 20 0 17 -7 20 -44 20 -26
0 -45 -5 -48 -12z"/>
<path d="M2378 948 c-2 -7 -2 -118 0 -246 l4 -233 56 3 c43 2 57 7 57 18 0 10
-12 16 -37 18 l-38 3 0 94 c0 93 1 95 25 101 16 4 25 13 25 25 0 14 -7 19 -25
19 -25 0 -25 1 -25 85 0 84 0 85 25 85 18 0 25 5 25 20 0 17 -7 20 -44 20 -26
0 -45 -5 -48 -12z"/>
<path d="M2615 838 c3 -68 7 -179 9 -248 3 -120 4 -125 25 -124 75 2 81 4 81
24 0 16 -7 20 -30 20 l-30 0 0 68 c0 37 -3 138 -7 225 l-6 157 -24 0 -25 0 7
-122z"/>
<path d="M2850 933 c-32 -40 -24 -109 24 -209 45 -95 55 -157 32 -202 -14 -28
-19 -30 -52 -25 -32 5 -36 4 -32 -13 3 -16 12 -19 52 -19 69 0 91 31 90 123 0
58 -6 79 -42 151 -56 114 -57 175 -2 182 40 6 31 33 -11 37 -30 3 -41 -2 -59
-25z"/>
<path d="M360 705 l0 -45 470 0 470 0 0 45 0 45 -470 0 -470 0 0 -45z"/>
<path d="M3200 705 l0 -45 470 0 470 0 0 45 0 45 -470 0 -470 0 0 -45z"/>
</g>
</svg>
